<?xml version="1.0" encoding="utf-8"?>
<svg version="1.1" id="Lockup" xmlns="http://www.w3.org/2000/svg" xmlns:xlink="http://www.w3.org/1999/xlink" x="0px" y="0px" width="268.6400146px" height="56.1800003px" viewBox="0 0 268.6400146 56.1800003" enable-background="new 0 0 268.6400146 56.1800003" xml:space="preserve">
	<g>
		<g>
			<path d="M67.0060501,11.4505014c10.4736328,0,16.6748047,6.4453115,16.6748047,17.5537109   c0,11.1328125-6.1767578,17.6762695-16.6748047,17.6762695H54.5792885V11.4505014H67.0060501z M60.0480385,41.9436646h6.4453163   c7.4707031,0,11.5966797-4.5654297,11.5966797-12.890625c0-8.3007812-4.1503906-12.890625-11.5966797-12.890625h-6.4453163   V41.9436646z"></path>
			<path d="M109.6178665,39.1360474c-0.7080078,4.6630859-5.2490234,7.8618164-11.0595703,7.8618164   c-7.4707031,0-12.109375-5.0053711-12.109375-13.0375977c0-8.0566406,4.6630859-13.28125,11.8896484-13.28125   c7.1044922,0,11.5722656,4.8828125,11.5722656,12.6708984v1.8066406H91.7711868v0.3173828   c0,4.3945312,2.7587891,7.2753906,6.9091797,7.2753906c2.9296875,0,5.2246094-1.3916016,5.9326172-3.6132812H109.6178665z    M91.7956009,31.4700317h12.8417969c-0.1220703-3.9306641-2.6367188-6.5185547-6.2988281-6.5185547   C94.7008743,24.9514771,92.0641556,27.5881958,91.7956009,31.4700317z"></path>
			<path d="M126.0578079,46.680481h-5.6640625l-9.2529297-25.684082h5.6152344l6.4453125,20.5322266h0.0976562l6.4453049-20.5322266   h5.5175781L126.0578079,46.680481z"></path>
			<path d="M159.1603394,39.1360474c-0.7080078,4.6630859-5.2490234,7.8618164-11.0595703,7.8618164   c-7.4707031,0-12.109375-5.0053711-12.109375-13.0375977c0-8.0566406,4.6630859-13.28125,11.8896484-13.28125   c7.1044922,0,11.5722656,4.8828125,11.5722656,12.6708984v1.8066406h-18.1396484v0.3173828   c0,4.3945312,2.7587891,7.2753906,6.9091797,7.2753906c2.9296875,0,5.2246094-1.3916016,5.9326172-3.6132812H159.1603394z    M141.3380737,31.4700317h12.8417969c-0.1220703-3.9306641-2.6367188-6.5185547-6.2988281-6.5185547   C144.2433472,24.9514771,141.6066284,27.5881958,141.3380737,31.4700317z"></path>
			<path d="M163.725769,11.4505014h5.2734375V46.680481h-5.2734375V11.4505014z"></path>
			<path d="M172.8722534,33.8381958c0-8.0810547,4.7607422-13.1591797,12.1826172-13.1591797   c7.4462891,0,12.1826172,5.078125,12.1826172,13.1591797c0,8.1054688-4.7119141,13.159668-12.1826172,13.159668   S172.8722534,41.9436646,172.8722534,33.8381958z M191.866394,33.8381958c0-5.5419922-2.5390625-8.8134766-6.8115234-8.8134766   s-6.8115234,3.2958984-6.8115234,8.8134766c0,5.5664062,2.5390625,8.8134766,6.8115234,8.8134766   S191.866394,39.4046021,191.866394,33.8381958z"></path>
			<path d="M225.0089722,33.8381958c0,7.9833984-4.2724609,13.1108398-10.7177734,13.1108398   c-3.6621094,0-6.5673828-1.6357422-8.0810547-4.4926758h-0.1220703v12.7202148h-5.2734375V20.9963989h5.1025391v4.2724609   h0.0976562c1.4648438-2.7587891,4.5898438-4.5410156,8.1787109-4.5410156   C220.7120972,20.7278442,225.0089722,25.8792114,225.0089722,33.8381958z M219.5890503,33.8381958   c0-5.2001953-2.6855469-8.6181641-6.7871094-8.6181641c-4.0283203,0-6.7382812,3.4912109-6.7382812,8.6181641   c0,5.1757812,2.7099609,8.6425781,6.7382812,8.6425781C216.9035034,42.4807739,219.5890503,39.0872192,219.5890503,33.8381958z"></path>
			<path d="M250.8829956,39.1360474c-0.7080078,4.6630859-5.2490234,7.8618164-11.0595703,7.8618164   c-7.4707031,0-12.109375-5.0053711-12.109375-13.0375977c0-8.0566406,4.6630859-13.28125,11.8896484-13.28125   c7.1044922,0,11.5722656,4.8828125,11.5722656,12.6708984v1.8066406h-18.1396484v0.3173828   c0,4.3945312,2.7587891,7.2753906,6.9091797,7.2753906c2.9296875,0,5.2246094-1.3916016,5.9326172-3.6132812H250.8829956z    M233.06073,31.4700317h12.8417969c-0.1220703-3.9306641-2.6367188-6.5185547-6.2988281-6.5185547   C235.9660034,24.9514771,233.3292847,27.5881958,233.06073,31.4700317z"></path>
			<path d="M255.0031128,20.9963989h5.0292969v4.3701172h0.1220703c0.8056641-2.9052734,3.1494141-4.6386719,6.1767578-4.6386719   c0.7568359,0,1.3916016,0.0976562,1.8066406,0.1953125v4.9316406c-0.4150391-0.1708984-1.3427734-0.3173828-2.3681641-0.3173828   c-3.3935547,0-5.4931641,2.2949219-5.4931641,5.9082031V46.680481h-5.2734375V20.9963989z"></path>
		</g>
		<g id="XMLID_5_">
			<path id="XMLID_14_" d="M26.460165,7.513381C28.0771942,5.4908295,29.1745014,2.7751205,28.8850975,0   c-2.3671093,0.1177039-5.2557106,1.5616617-6.9280739,3.5858014c-1.5016003,1.7333629-2.8306351,4.5627699-2.4841633,7.2215576   C22.1300602,11.037858,24.7848053,9.4791927,26.460165,7.513381"></path>
			<path id="XMLID_6_" d="M28.8549023,11.326499c-3.8588982-0.2298632-7.1399002,2.1901054-8.9827271,2.1901054   c-1.8438358,0-4.6657953-2.0742741-7.7179785-2.0183744c-3.9726057,0.0583477-7.6587281,2.3044977-9.6746559,5.8769131   c-4.1464252,7.146595-1.0942432,17.7475071,2.9379346,23.568018c1.9581194,2.8795853,4.3179765,6.0502281,7.4274631,5.9363403   c2.9379349-0.1152916,4.0894814-1.9023628,7.660675-1.9023628c3.5685616,0,4.6058617,1.9023628,7.7158527,1.8447342   c3.2251377-0.057663,5.2414246-2.8810272,7.1995049-5.7634201c2.2463303-3.2825851,3.1658936-6.4521828,3.2237358-6.6261826   c-0.0578423-0.0576286-6.2189713-2.4211922-6.2760963-9.5083961c-0.0581665-5.9342175,4.8371696-8.7568607,5.0675697-8.9319038   C34.6717415,11.9033518,30.3523617,11.4423304,28.8549023,11.326499"></path>
		</g>
	</g>
</svg>